<?xml version="1.0" encoding="utf-8"?>
<!-- Svg Vector Icons : http://www.onlinewebfonts.com/icon -->
<!DOCTYPE svg PUBLIC "-//W3C//DTD SVG 1.1//EN" "http://www.w3.org/Graphics/SVG/1.1/DTD/svg11.dtd">
<svg version="1.1" xmlns="http://www.w3.org/2000/svg" xmlns:xlink="http://www.w3.org/1999/xlink" x="0px" y="0px" viewBox="0 0 1000 1000" enable-background="new 0 0 1000 1000" xml:space="preserve">
<metadata> Svg Vector Icons : http://www.onlinewebfonts.com/icon </metadata>
<g><path d="M721.4,255.2c17.4,23.4,41.6,30.5,68.2,36.4c-4.2,1.7-7.2,2.9-10.2,4c-3.2,1.2-6.4,2.4-9.7,3.4c-39.2,12.5-79.2,22.7-116.9,39.7c-2.7,1.2-5.5,2.5-8.2,3.7c-7.9,3.7-11.2,9.7-10.8,18.5c1,27.6-2.6,54.5-14.7,79.6c-13.3,27.5-34.2,48.6-58.1,67c-19.9,15.3-41.9,26.1-67.2,28.9c-8.3,0.9-16.7,0.9-25.1,0.7c-2.6-0.1-6-1.7-7.5-3.7c-0.8-1.1,1.4-4.9,3-6.9c7.7-9.5,15.9-18.6,23.3-28.3c9.3-12.1,12.6-26,10.9-41.2c-1.6-14.3-9.4-22.1-27.2-21.7c-6.1,0.2-12.6,3-18.1,6c-48.8,26.7-83.3,67-108.3,115.8c-21.7,42.4-33,87.4-31.1,135.3c3.3,85.6,37.9,156,105.1,209.3c53.5,42.4,115.3,61.3,183.4,60.2c2,0,4-0.3,7.7-0.7C473.3,927.8,411,823.6,403.5,731.1c-5-61.7,15.2-139.8,37.2-149.9c-0.6,3.5-0.7,6.4-1.5,9c-12.5,40.3-18.2,81.5-12.7,123.3c10.7,81.7,59.9,145.7,141.4,167.1c94.7,24.8,189.7-20.3,228.6-110c11.5-26.4,16.1-54.2,15.3-82.9c-0.5-17.7,4.3-33.6,16.2-46.8c17.1-19,38.7-25.5,63.5-20.7c23.6,4.6,37.9,19.6,45.2,41.9c6,18.5,4.6,37.5,3.2,56.2c-3,39.4-14.3,76.6-34,111c-28.7,50.2-69.4,87.6-121.7,111.9c-34.6,16.1-69.9,30.5-107.6,38.4c-48.7,10.3-97.8,12.9-147.3,7.6c-102.4-11-191.9-50.8-266.7-121.8c-68-64.5-111.3-143.1-130-235.1c-9.5-46.7-10.5-93.7-4.3-141c7.3-56.1,23.9-109.2,50.1-159.3c4.8-9.2,7.2-18.9,5.3-29.2c-3-15.9-15.7-27-34.1-30.7c-17.4-3.5-33.6,1.8-49.7,7.3c-9.9,3.4-19.8,7.1-29.9,9.9c-8.4,2.3-11.4-0.3-10.8-8.9c1.1-17.1,8.1-31.8,18.4-45.2c25.9-33.4,60.9-51.8,101.2-62c41.6-10.6,82.9-9.1,124.1,1.8c5.5,1.5,9,0.3,12.9-3.7c40.2-40.1,84.5-75,133.9-103c45.9-26,94.3-45.4,146.8-53c38.4-5.5,76.7-5.3,114,6.9c34,11.2,63.9,28.4,83.7,59.6c12.2,19.2,19.4,40,19.8,63c0.1,7.9,1.9,10,9.7,10.6c12.4,0.9,24.9,0.7,37.2,2.3c14.9,1.9,29.3,6.4,39.1,18.7c15.1,18.9,13.3,44.9-3.7,62.9c-21.3,22.5-48.3,31.6-78.4,33.9c-30.6,2.3-59.9-1.7-87.8-14.9c-1.3-0.6-2.8-1.1-4.2-1.5C725,255,724.1,255.2,721.4,255.2z M675.3,110c-33.6,0.1-61.1,27.6-61,61.1c0,33.5,27.6,61,61.2,60.9c33.4-0.1,61.4-28,61.2-61.1C736.3,137.6,708.6,109.9,675.3,110z"/><path d="M861.9,590.3c-12,5.8-23.8,10.1-34.2,16.6c-24.5,15.2-37.4,37.8-39.4,66.5c-1,14.1-0.8,28.3-1.9,42.5c-2.3,28.1-14.7,52.2-30.5,74.8c-29.7,42.4-71.5,63.3-122.1,68.8c-30,3.2-59.1,0.8-86.9-11.7c-2.3-1-4.5-2.3-6.5-4.8c13.7,0,27.5,0.8,41.2-0.1c52-3.5,94.5-25.8,125.4-67.8c31-42.2,39-90.2,31.8-141.3c-1.5-10.6-4.3-21.2-4.4-31.8c-0.3-26.3,11.5-46.5,35.2-58.3c22-11,44.5-11.5,65.3,2.9C850.3,557.1,858.2,573.1,861.9,590.3z"/><path d="M675.3,110c33.3-0.1,61.1,27.5,61.3,61c0.2,33.1-27.7,61-61.2,61.1c-33.5,0.1-61.2-27.4-61.2-60.9C614.2,137.7,641.7,110.2,675.3,110z M690.9,129.3c-16-9.6-42.9-1-54.2,17.4c-13.1,21.3-7.2,49.1,13.4,62.5c18,11.7,45.6,9,55.4-5.4c-29.1,2.4-46.3-9.2-49.4-33.3C653.7,150.6,668.3,133.2,690.9,129.3z M689.7,162.3c5.4-0.1,9.7-4.5,9.6-9.8c0-5.6-4.7-9.9-10.4-9.7c-5.5,0.2-9.4,4.6-9.2,10.1C679.9,158.4,684.2,162.4,689.7,162.3z"/><path d="M690.9,129.3c-22.6,3.9-37.2,21.3-34.6,41.1c3.1,24.1,20.3,35.7,49.4,33.3c-9.8,14.4-37.5,17.1-55.4,5.4c-20.6-13.4-26.6-41.2-13.4-62.5C648.1,128.3,675,119.7,690.9,129.3z"/><path d="M689.7,162.3c-5.5,0.1-9.8-3.9-10-9.4c-0.2-5.5,3.8-9.9,9.2-10.1c5.8-0.3,10.4,4,10.4,9.7C699.4,157.8,695.1,162.1,689.7,162.3z"/></g>
</svg>